<svg id="SvgjsSvg1001" width="288" height="288" xmlns="http://www.w3.org/2000/svg" version="1.1" xmlns:xlink="http://www.w3.org/1999/xlink" xmlns:svgjs="http://svgjs.com/svgjs"><defs id="SvgjsDefs1002"></defs><g id="SvgjsG1008" transform="matrix(1,0,0,1,0,0)"><svg xmlns="http://www.w3.org/2000/svg" viewBox="0 0 24 24" width="288" height="288"><path d="M18,4.48a8.45,8.45,0,0,0-12,12l5.27,5.28a1,1,0,0,0,1.42,0L18,16.43A8.45,8.45,0,0,0,18,4.48ZM16.57,15,12,19.59,7.43,15a6.46,6.46,0,1,1,9.14,0ZM9,7.41a4.32,4.32,0,0,0,0,6.1,4.31,4.31,0,0,0,7.36-3,4.24,4.24,0,0,0-1.26-3.05A4.3,4.3,0,0,0,9,7.41Zm4.69,4.68a2.33,2.33,0,1,1,.67-1.63A2.33,2.33,0,0,1,13.64,12.09Z" fill="#6666ff" class="color000 svgShape"></path></svg></g></svg>